<mxfile host="app.diagrams.net" modified="2021-09-28T15:59:23.585Z" agent="5.0 (Windows NT 10.0; Win64; x64) AppleWebKit/537.36 (KHTML, like Gecko) Chrome/93.0.4577.82 Safari/537.36" etag="iU5eb3fyeIBrqzFGCs13" version="15.3.7" type="github">
  <diagram id="R2lEEEUBdFMjLlhIrx00" name="Page-1">
    <mxGraphModel dx="1826" dy="1719" grid="1" gridSize="10" guides="1" tooltips="1" connect="1" arrows="1" fold="1" page="1" pageScale="1" pageWidth="850" pageHeight="1100" math="0" shadow="0" extFonts="Permanent Marker^https://fonts.googleapis.com/css?family=Permanent+Marker">
      <root>
        <mxCell id="0" />
        <mxCell id="1" parent="0" />
        <mxCell id="57EzMfTIHRk-Z8D5jB0g-2" value="&lt;h2&gt;&lt;font face=&quot;Times New Roman&quot;&gt;Admin&lt;/font&gt;&lt;/h2&gt;" style="whiteSpace=wrap;html=1;align=center;" vertex="1" parent="1">
          <mxGeometry x="150" y="195" width="100" height="50" as="geometry" />
        </mxCell>
        <mxCell id="57EzMfTIHRk-Z8D5jB0g-3" value="Admin name" style="ellipse;whiteSpace=wrap;html=1;align=center;" vertex="1" parent="1">
          <mxGeometry x="40" y="100" width="100" height="40" as="geometry" />
        </mxCell>
        <mxCell id="57EzMfTIHRk-Z8D5jB0g-4" value="" style="endArrow=none;html=1;strokeColor=default;entryX=0.5;entryY=1;entryDx=0;entryDy=0;rounded=0;exitX=0.168;exitY=-0.025;exitDx=0;exitDy=0;exitPerimeter=0;" edge="1" parent="1" source="57EzMfTIHRk-Z8D5jB0g-2" target="57EzMfTIHRk-Z8D5jB0g-3">
          <mxGeometry width="50" height="50" relative="1" as="geometry">
            <mxPoint x="90" y="230" as="sourcePoint" />
            <mxPoint x="140" y="180" as="targetPoint" />
            <Array as="points">
              <mxPoint x="167" y="170" />
              <mxPoint x="110" y="170" />
              <mxPoint x="90" y="170" />
            </Array>
          </mxGeometry>
        </mxCell>
        <mxCell id="57EzMfTIHRk-Z8D5jB0g-5" value="Password" style="ellipse;whiteSpace=wrap;html=1;align=center;" vertex="1" parent="1">
          <mxGeometry x="280" y="100" width="100" height="40" as="geometry" />
        </mxCell>
        <mxCell id="57EzMfTIHRk-Z8D5jB0g-6" value="" style="endArrow=none;html=1;strokeColor=default;entryX=0.5;entryY=1;entryDx=0;entryDy=0;exitX=0.75;exitY=0;exitDx=0;exitDy=0;rounded=0;" edge="1" parent="1" source="57EzMfTIHRk-Z8D5jB0g-2" target="57EzMfTIHRk-Z8D5jB0g-5">
          <mxGeometry width="50" height="50" relative="1" as="geometry">
            <mxPoint x="340" y="190" as="sourcePoint" />
            <mxPoint x="260" y="150" as="targetPoint" />
            <Array as="points">
              <mxPoint x="225" y="170" />
              <mxPoint x="330" y="170" />
            </Array>
          </mxGeometry>
        </mxCell>
        <mxCell id="57EzMfTIHRk-Z8D5jB0g-7" value="Manages" style="rhombus;whiteSpace=wrap;html=1;" vertex="1" parent="1">
          <mxGeometry x="430" y="180" width="80" height="80" as="geometry" />
        </mxCell>
        <mxCell id="57EzMfTIHRk-Z8D5jB0g-9" value="" style="endArrow=none;html=1;strokeColor=default;exitX=1;exitY=0.5;exitDx=0;exitDy=0;entryX=0;entryY=0.5;entryDx=0;entryDy=0;" edge="1" parent="1" source="57EzMfTIHRk-Z8D5jB0g-2" target="57EzMfTIHRk-Z8D5jB0g-7">
          <mxGeometry width="50" height="50" relative="1" as="geometry">
            <mxPoint x="400" y="320" as="sourcePoint" />
            <mxPoint x="450" y="270" as="targetPoint" />
          </mxGeometry>
        </mxCell>
        <mxCell id="57EzMfTIHRk-Z8D5jB0g-10" value="" style="endArrow=none;html=1;strokeColor=default;exitX=1;exitY=0.5;exitDx=0;exitDy=0;entryX=0;entryY=0.5;entryDx=0;entryDy=0;" edge="1" parent="1" target="57EzMfTIHRk-Z8D5jB0g-11">
          <mxGeometry width="50" height="50" relative="1" as="geometry">
            <mxPoint x="510" y="219.5" as="sourcePoint" />
            <mxPoint x="660" y="219.5" as="targetPoint" />
          </mxGeometry>
        </mxCell>
        <mxCell id="57EzMfTIHRk-Z8D5jB0g-11" value="&lt;h2&gt;&lt;font face=&quot;Times New Roman&quot;&gt;Student&lt;/font&gt;&lt;/h2&gt;" style="whiteSpace=wrap;html=1;align=center;" vertex="1" parent="1">
          <mxGeometry x="720" y="200" width="170" height="40" as="geometry" />
        </mxCell>
        <mxCell id="57EzMfTIHRk-Z8D5jB0g-12" value="&lt;h4&gt;1&lt;/h4&gt;" style="text;html=1;align=center;verticalAlign=middle;resizable=0;points=[];autosize=1;strokeColor=none;fillColor=none;" vertex="1" parent="1">
          <mxGeometry x="280" y="185" width="20" height="50" as="geometry" />
        </mxCell>
        <mxCell id="57EzMfTIHRk-Z8D5jB0g-13" value="&lt;h4&gt;N&lt;/h4&gt;" style="text;html=1;align=center;verticalAlign=middle;resizable=0;points=[];autosize=1;strokeColor=none;fillColor=none;" vertex="1" parent="1">
          <mxGeometry x="660" y="185" width="20" height="50" as="geometry" />
        </mxCell>
        <mxCell id="57EzMfTIHRk-Z8D5jB0g-14" value="course" style="ellipse;whiteSpace=wrap;html=1;align=center;" vertex="1" parent="1">
          <mxGeometry x="559" y="290" width="71" height="40" as="geometry" />
        </mxCell>
        <mxCell id="57EzMfTIHRk-Z8D5jB0g-15" value="year" style="ellipse;whiteSpace=wrap;html=1;align=center;" vertex="1" parent="1">
          <mxGeometry x="589" y="350" width="70" height="30" as="geometry" />
        </mxCell>
        <mxCell id="57EzMfTIHRk-Z8D5jB0g-17" value="Has" style="rhombus;whiteSpace=wrap;html=1;" vertex="1" parent="1">
          <mxGeometry x="755" y="470" width="100" height="80" as="geometry" />
        </mxCell>
        <mxCell id="57EzMfTIHRk-Z8D5jB0g-19" value="" style="endArrow=none;html=1;strokeColor=default;entryX=0.5;entryY=1;entryDx=0;entryDy=0;exitX=0.5;exitY=0;exitDx=0;exitDy=0;" edge="1" parent="1" source="57EzMfTIHRk-Z8D5jB0g-17" target="57EzMfTIHRk-Z8D5jB0g-11">
          <mxGeometry width="50" height="50" relative="1" as="geometry">
            <mxPoint x="685" y="360" as="sourcePoint" />
            <mxPoint x="735" y="310" as="targetPoint" />
          </mxGeometry>
        </mxCell>
        <mxCell id="57EzMfTIHRk-Z8D5jB0g-20" value="" style="endArrow=none;html=1;strokeColor=default;exitX=0.5;exitY=0;exitDx=0;exitDy=0;entryX=0.5;entryY=1;entryDx=0;entryDy=0;" edge="1" parent="1" source="57EzMfTIHRk-Z8D5jB0g-21" target="57EzMfTIHRk-Z8D5jB0g-17">
          <mxGeometry width="50" height="50" relative="1" as="geometry">
            <mxPoint x="709.5" y="650" as="sourcePoint" />
            <mxPoint x="710" y="480" as="targetPoint" />
          </mxGeometry>
        </mxCell>
        <mxCell id="57EzMfTIHRk-Z8D5jB0g-21" value="&lt;h2&gt;&lt;font face=&quot;Times New Roman&quot;&gt;Attendance Report&lt;/font&gt;&lt;/h2&gt;" style="whiteSpace=wrap;html=1;align=center;" vertex="1" parent="1">
          <mxGeometry x="715" y="660" width="180" height="50" as="geometry" />
        </mxCell>
        <mxCell id="57EzMfTIHRk-Z8D5jB0g-22" value="attendance status" style="ellipse;whiteSpace=wrap;html=1;align=center;" vertex="1" parent="1">
          <mxGeometry x="880" y="790" width="140" height="50" as="geometry" />
        </mxCell>
        <mxCell id="57EzMfTIHRk-Z8D5jB0g-23" value="date" style="ellipse;whiteSpace=wrap;html=1;align=center;" vertex="1" parent="1">
          <mxGeometry x="659" y="795" width="60" height="40" as="geometry" />
        </mxCell>
        <mxCell id="57EzMfTIHRk-Z8D5jB0g-25" value="" style="endArrow=none;html=1;strokeColor=default;exitX=0.5;exitY=0;exitDx=0;exitDy=0;rounded=0;" edge="1" parent="1" source="57EzMfTIHRk-Z8D5jB0g-23">
          <mxGeometry width="50" height="50" relative="1" as="geometry">
            <mxPoint x="759" y="745" as="sourcePoint" />
            <mxPoint x="773" y="710" as="targetPoint" />
            <Array as="points">
              <mxPoint x="689" y="750" />
              <mxPoint x="773" y="750" />
            </Array>
          </mxGeometry>
        </mxCell>
        <mxCell id="57EzMfTIHRk-Z8D5jB0g-26" value="" style="endArrow=none;html=1;strokeColor=default;exitX=0.5;exitY=0;exitDx=0;exitDy=0;entryX=0.75;entryY=1;entryDx=0;entryDy=0;rounded=0;" edge="1" parent="1" source="57EzMfTIHRk-Z8D5jB0g-22" target="57EzMfTIHRk-Z8D5jB0g-21">
          <mxGeometry width="50" height="50" relative="1" as="geometry">
            <mxPoint x="750" y="740" as="sourcePoint" />
            <mxPoint x="750" y="630" as="targetPoint" />
            <Array as="points">
              <mxPoint x="950" y="750" />
              <mxPoint x="850" y="750" />
            </Array>
          </mxGeometry>
        </mxCell>
        <mxCell id="57EzMfTIHRk-Z8D5jB0g-27" value="&lt;h4&gt;1&lt;/h4&gt;" style="text;html=1;align=center;verticalAlign=middle;resizable=0;points=[];autosize=1;strokeColor=none;fillColor=none;" vertex="1" parent="1">
          <mxGeometry x="780" y="235" width="20" height="50" as="geometry" />
        </mxCell>
        <mxCell id="57EzMfTIHRk-Z8D5jB0g-28" value="&lt;h4&gt;N&lt;/h4&gt;" style="text;html=1;align=center;verticalAlign=middle;resizable=0;points=[];autosize=1;strokeColor=none;fillColor=none;" vertex="1" parent="1">
          <mxGeometry x="780" y="615" width="20" height="50" as="geometry" />
        </mxCell>
        <mxCell id="57EzMfTIHRk-Z8D5jB0g-29" value="&lt;u&gt;id&lt;/u&gt;" style="ellipse;whiteSpace=wrap;html=1;align=center;" vertex="1" parent="1">
          <mxGeometry x="620" y="70" width="60" height="30" as="geometry" />
        </mxCell>
        <mxCell id="57EzMfTIHRk-Z8D5jB0g-30" value="name" style="ellipse;whiteSpace=wrap;html=1;align=center;" vertex="1" parent="1">
          <mxGeometry x="659" y="10" width="70" height="40" as="geometry" />
        </mxCell>
        <mxCell id="57EzMfTIHRk-Z8D5jB0g-31" value="roll" style="ellipse;whiteSpace=wrap;html=1;align=center;" vertex="1" parent="1">
          <mxGeometry x="750" y="-20" width="60" height="40" as="geometry" />
        </mxCell>
        <mxCell id="57EzMfTIHRk-Z8D5jB0g-32" value="gender" style="ellipse;whiteSpace=wrap;html=1;align=center;" vertex="1" parent="1">
          <mxGeometry x="830" y="-40" width="70" height="40" as="geometry" />
        </mxCell>
        <mxCell id="57EzMfTIHRk-Z8D5jB0g-33" value="div" style="ellipse;whiteSpace=wrap;html=1;align=center;" vertex="1" parent="1">
          <mxGeometry x="920" y="-10" width="60" height="40" as="geometry" />
        </mxCell>
        <mxCell id="57EzMfTIHRk-Z8D5jB0g-34" value="dob" style="ellipse;whiteSpace=wrap;html=1;align=center;" vertex="1" parent="1">
          <mxGeometry x="990" y="40" width="60" height="40" as="geometry" />
        </mxCell>
        <mxCell id="57EzMfTIHRk-Z8D5jB0g-35" value="phone&lt;span style=&quot;color: rgba(0 , 0 , 0 , 0) ; font-family: monospace ; font-size: 0px&quot;&gt;%3CmxGraphModel%3E%3Croot%3E%3CmxCell%20id%3D%220%22%2F%3E%3CmxCell%20id%3D%221%22%20parent%3D%220%22%2F%3E%3CmxCell%20id%3D%222%22%20value%3D%22name%22%20style%3D%22ellipse%3BwhiteSpace%3Dwrap%3Bhtml%3D1%3Balign%3Dcenter%3B%22%20vertex%3D%221%22%20parent%3D%221%22%3E%3CmxGeometry%20x%3D%22640%22%20y%3D%2270%22%20width%3D%2270%22%20height%3D%2240%22%20as%3D%22geometry%22%2F%3E%3C%2FmxCell%3E%3C%2Froot%3E%3C%2FmxGraphModel%3E&lt;/span&gt;" style="ellipse;whiteSpace=wrap;html=1;align=center;" vertex="1" parent="1">
          <mxGeometry x="1050" y="200" width="80" height="40" as="geometry" />
        </mxCell>
        <mxCell id="57EzMfTIHRk-Z8D5jB0g-36" value="email" style="ellipse;whiteSpace=wrap;html=1;align=center;" vertex="1" parent="1">
          <mxGeometry x="1050" y="110" width="70" height="40" as="geometry" />
        </mxCell>
        <mxCell id="57EzMfTIHRk-Z8D5jB0g-37" value="address" style="ellipse;whiteSpace=wrap;html=1;align=center;" vertex="1" parent="1">
          <mxGeometry x="1030" y="270" width="70" height="40" as="geometry" />
        </mxCell>
        <mxCell id="57EzMfTIHRk-Z8D5jB0g-38" value="teacher" style="ellipse;whiteSpace=wrap;html=1;align=center;" vertex="1" parent="1">
          <mxGeometry x="990" y="330" width="70" height="40" as="geometry" />
        </mxCell>
        <mxCell id="57EzMfTIHRk-Z8D5jB0g-39" value="photo" style="ellipse;whiteSpace=wrap;html=1;align=center;" vertex="1" parent="1">
          <mxGeometry x="910" y="350" width="70" height="40" as="geometry" />
        </mxCell>
        <mxCell id="57EzMfTIHRk-Z8D5jB0g-40" value="dep" style="ellipse;whiteSpace=wrap;html=1;align=center;" vertex="1" parent="1">
          <mxGeometry x="570" y="245" width="60" height="30" as="geometry" />
        </mxCell>
        <mxCell id="57EzMfTIHRk-Z8D5jB0g-42" value="sem" style="ellipse;whiteSpace=wrap;html=1;align=center;" vertex="1" parent="1">
          <mxGeometry x="660" y="385" width="60" height="40" as="geometry" />
        </mxCell>
        <mxCell id="57EzMfTIHRk-Z8D5jB0g-44" value="" style="endArrow=none;html=1;strokeColor=default;entryX=0.5;entryY=1;entryDx=0;entryDy=0;exitX=0.099;exitY=-0.065;exitDx=0;exitDy=0;exitPerimeter=0;" edge="1" parent="1" source="57EzMfTIHRk-Z8D5jB0g-11" target="57EzMfTIHRk-Z8D5jB0g-29">
          <mxGeometry width="50" height="50" relative="1" as="geometry">
            <mxPoint x="724" y="170" as="sourcePoint" />
            <mxPoint x="774" y="120" as="targetPoint" />
          </mxGeometry>
        </mxCell>
        <mxCell id="57EzMfTIHRk-Z8D5jB0g-45" value="" style="endArrow=none;html=1;strokeColor=default;entryX=0.6;entryY=1.035;entryDx=0;entryDy=0;exitX=0.25;exitY=0;exitDx=0;exitDy=0;entryPerimeter=0;" edge="1" parent="1" source="57EzMfTIHRk-Z8D5jB0g-11" target="57EzMfTIHRk-Z8D5jB0g-30">
          <mxGeometry width="50" height="50" relative="1" as="geometry">
            <mxPoint x="746.8299999999999" y="207.4000000000001" as="sourcePoint" />
            <mxPoint x="670" y="150" as="targetPoint" />
          </mxGeometry>
        </mxCell>
        <mxCell id="57EzMfTIHRk-Z8D5jB0g-46" value="" style="endArrow=none;html=1;strokeColor=default;entryX=0.5;entryY=1;entryDx=0;entryDy=0;exitX=0.381;exitY=-0.105;exitDx=0;exitDy=0;exitPerimeter=0;" edge="1" parent="1" source="57EzMfTIHRk-Z8D5jB0g-11" target="57EzMfTIHRk-Z8D5jB0g-31">
          <mxGeometry width="50" height="50" relative="1" as="geometry">
            <mxPoint x="780" y="160" as="sourcePoint" />
            <mxPoint x="740" y="70.70000000000009" as="targetPoint" />
          </mxGeometry>
        </mxCell>
        <mxCell id="57EzMfTIHRk-Z8D5jB0g-47" value="" style="endArrow=none;html=1;strokeColor=default;entryX=0.5;entryY=1;entryDx=0;entryDy=0;exitX=0.5;exitY=0;exitDx=0;exitDy=0;" edge="1" parent="1" source="57EzMfTIHRk-Z8D5jB0g-11" target="57EzMfTIHRk-Z8D5jB0g-32">
          <mxGeometry width="50" height="50" relative="1" as="geometry">
            <mxPoint x="789.1600000000001" y="205.79999999999995" as="sourcePoint" />
            <mxPoint x="750" y="40" as="targetPoint" />
          </mxGeometry>
        </mxCell>
        <mxCell id="57EzMfTIHRk-Z8D5jB0g-48" value="" style="endArrow=none;html=1;strokeColor=default;entryX=0.267;entryY=1.075;entryDx=0;entryDy=0;entryPerimeter=0;exitX=0.593;exitY=-0.005;exitDx=0;exitDy=0;exitPerimeter=0;" edge="1" parent="1" source="57EzMfTIHRk-Z8D5jB0g-11" target="57EzMfTIHRk-Z8D5jB0g-33">
          <mxGeometry width="50" height="50" relative="1" as="geometry">
            <mxPoint x="830" y="170" as="sourcePoint" />
            <mxPoint x="815" as="targetPoint" />
          </mxGeometry>
        </mxCell>
        <mxCell id="57EzMfTIHRk-Z8D5jB0g-49" value="" style="endArrow=none;html=1;strokeColor=default;entryX=0.033;entryY=0.755;entryDx=0;entryDy=0;entryPerimeter=0;exitX=0.75;exitY=0;exitDx=0;exitDy=0;" edge="1" parent="1" source="57EzMfTIHRk-Z8D5jB0g-11" target="57EzMfTIHRk-Z8D5jB0g-34">
          <mxGeometry width="50" height="50" relative="1" as="geometry">
            <mxPoint x="830.81" y="209.79999999999995" as="sourcePoint" />
            <mxPoint x="886.02" y="53" as="targetPoint" />
          </mxGeometry>
        </mxCell>
        <mxCell id="57EzMfTIHRk-Z8D5jB0g-50" value="" style="endArrow=none;html=1;strokeColor=default;entryX=0;entryY=0.5;entryDx=0;entryDy=0;exitX=1;exitY=0.25;exitDx=0;exitDy=0;" edge="1" parent="1" source="57EzMfTIHRk-Z8D5jB0g-11" target="57EzMfTIHRk-Z8D5jB0g-36">
          <mxGeometry width="50" height="50" relative="1" as="geometry">
            <mxPoint x="930" y="180" as="sourcePoint" />
            <mxPoint x="971.98" y="70.20000000000005" as="targetPoint" />
          </mxGeometry>
        </mxCell>
        <mxCell id="57EzMfTIHRk-Z8D5jB0g-51" value="" style="endArrow=none;html=1;strokeColor=default;entryX=0;entryY=0.5;entryDx=0;entryDy=0;exitX=1;exitY=0.5;exitDx=0;exitDy=0;" edge="1" parent="1" source="57EzMfTIHRk-Z8D5jB0g-11" target="57EzMfTIHRk-Z8D5jB0g-35">
          <mxGeometry width="50" height="50" relative="1" as="geometry">
            <mxPoint x="878.0699999999999" y="208.20000000000005" as="sourcePoint" />
            <mxPoint x="1040" y="130" as="targetPoint" />
          </mxGeometry>
        </mxCell>
        <mxCell id="57EzMfTIHRk-Z8D5jB0g-52" value="" style="endArrow=none;html=1;strokeColor=default;entryX=0;entryY=0;entryDx=0;entryDy=0;exitX=1;exitY=0.75;exitDx=0;exitDy=0;" edge="1" parent="1" source="57EzMfTIHRk-Z8D5jB0g-11" target="57EzMfTIHRk-Z8D5jB0g-37">
          <mxGeometry width="50" height="50" relative="1" as="geometry">
            <mxPoint x="900" y="230" as="sourcePoint" />
            <mxPoint x="1060" y="230" as="targetPoint" />
          </mxGeometry>
        </mxCell>
        <mxCell id="57EzMfTIHRk-Z8D5jB0g-54" value="" style="endArrow=none;html=1;strokeColor=default;entryX=0.5;entryY=0;entryDx=0;entryDy=0;exitX=0.824;exitY=1.095;exitDx=0;exitDy=0;exitPerimeter=0;" edge="1" parent="1" source="57EzMfTIHRk-Z8D5jB0g-11" target="57EzMfTIHRk-Z8D5jB0g-38">
          <mxGeometry width="50" height="50" relative="1" as="geometry">
            <mxPoint x="900" y="240" as="sourcePoint" />
            <mxPoint x="1040.251262658471" y="290.85786437626916" as="targetPoint" />
          </mxGeometry>
        </mxCell>
        <mxCell id="57EzMfTIHRk-Z8D5jB0g-55" value="" style="endArrow=none;html=1;strokeColor=default;exitX=0.659;exitY=1.075;exitDx=0;exitDy=0;exitPerimeter=0;" edge="1" parent="1" source="57EzMfTIHRk-Z8D5jB0g-11" target="57EzMfTIHRk-Z8D5jB0g-39">
          <mxGeometry width="50" height="50" relative="1" as="geometry">
            <mxPoint x="892.3499999999999" y="251.4000000000001" as="sourcePoint" />
            <mxPoint x="1035" y="350" as="targetPoint" />
          </mxGeometry>
        </mxCell>
        <mxCell id="57EzMfTIHRk-Z8D5jB0g-56" value="" style="endArrow=none;html=1;strokeColor=default;entryX=1;entryY=0.5;entryDx=0;entryDy=0;exitX=0;exitY=1;exitDx=0;exitDy=0;" edge="1" parent="1" source="57EzMfTIHRk-Z8D5jB0g-11" target="57EzMfTIHRk-Z8D5jB0g-40">
          <mxGeometry width="50" height="50" relative="1" as="geometry">
            <mxPoint x="746.8299999999999" y="207.4000000000001" as="sourcePoint" />
            <mxPoint x="680" y="130" as="targetPoint" />
          </mxGeometry>
        </mxCell>
        <mxCell id="57EzMfTIHRk-Z8D5jB0g-57" value="" style="endArrow=none;html=1;strokeColor=default;entryX=1.006;entryY=0.265;entryDx=0;entryDy=0;exitX=0.071;exitY=1.075;exitDx=0;exitDy=0;entryPerimeter=0;exitPerimeter=0;" edge="1" parent="1" source="57EzMfTIHRk-Z8D5jB0g-11" target="57EzMfTIHRk-Z8D5jB0g-14">
          <mxGeometry width="50" height="50" relative="1" as="geometry">
            <mxPoint x="730" y="250" as="sourcePoint" />
            <mxPoint x="640" y="270" as="targetPoint" />
          </mxGeometry>
        </mxCell>
        <mxCell id="57EzMfTIHRk-Z8D5jB0g-58" value="" style="endArrow=none;html=1;strokeColor=default;entryX=0.5;entryY=0;entryDx=0;entryDy=0;exitX=0.188;exitY=1.015;exitDx=0;exitDy=0;exitPerimeter=0;" edge="1" parent="1" source="57EzMfTIHRk-Z8D5jB0g-11" target="57EzMfTIHRk-Z8D5jB0g-15">
          <mxGeometry width="50" height="50" relative="1" as="geometry">
            <mxPoint x="742.0699999999999" y="253" as="sourcePoint" />
            <mxPoint x="640.4259999999999" y="310.5999999999999" as="targetPoint" />
          </mxGeometry>
        </mxCell>
        <mxCell id="57EzMfTIHRk-Z8D5jB0g-59" value="" style="endArrow=none;html=1;strokeColor=default;entryX=0.5;entryY=0;entryDx=0;entryDy=0;exitX=0.25;exitY=1;exitDx=0;exitDy=0;" edge="1" parent="1" source="57EzMfTIHRk-Z8D5jB0g-11" target="57EzMfTIHRk-Z8D5jB0g-42">
          <mxGeometry width="50" height="50" relative="1" as="geometry">
            <mxPoint x="761.96" y="250.5999999999999" as="sourcePoint" />
            <mxPoint x="645" y="360" as="targetPoint" />
          </mxGeometry>
        </mxCell>
        <mxCell id="57EzMfTIHRk-Z8D5jB0g-60" value="" style="endArrow=none;html=1;strokeColor=default;entryX=0.5;entryY=1;entryDx=0;entryDy=0;exitX=0.5;exitY=0;exitDx=0;exitDy=0;" edge="1" parent="1" source="57EzMfTIHRk-Z8D5jB0g-61" target="57EzMfTIHRk-Z8D5jB0g-2">
          <mxGeometry width="50" height="50" relative="1" as="geometry">
            <mxPoint x="190" y="475" as="sourcePoint" />
            <mxPoint x="190" y="255" as="targetPoint" />
          </mxGeometry>
        </mxCell>
        <mxCell id="57EzMfTIHRk-Z8D5jB0g-61" value="Generates" style="rhombus;whiteSpace=wrap;html=1;" vertex="1" parent="1">
          <mxGeometry x="150" y="450" width="100" height="90" as="geometry" />
        </mxCell>
        <mxCell id="57EzMfTIHRk-Z8D5jB0g-65" value="&lt;h2&gt;&lt;font face=&quot;Times New Roman&quot;&gt;Excel Sheet&lt;/font&gt;&lt;/h2&gt;" style="whiteSpace=wrap;html=1;align=center;" vertex="1" parent="1">
          <mxGeometry x="110" y="660" width="180" height="50" as="geometry" />
        </mxCell>
        <mxCell id="57EzMfTIHRk-Z8D5jB0g-66" value="" style="endArrow=none;html=1;strokeColor=default;exitX=0.5;exitY=0;exitDx=0;exitDy=0;entryX=0.5;entryY=1;entryDx=0;entryDy=0;" edge="1" parent="1" source="57EzMfTIHRk-Z8D5jB0g-65" target="57EzMfTIHRk-Z8D5jB0g-61">
          <mxGeometry width="50" height="50" relative="1" as="geometry">
            <mxPoint x="220" y="690" as="sourcePoint" />
            <mxPoint x="220" y="570" as="targetPoint" />
          </mxGeometry>
        </mxCell>
        <mxCell id="57EzMfTIHRk-Z8D5jB0g-67" value="&lt;h4&gt;1&lt;/h4&gt;" style="text;html=1;align=center;verticalAlign=middle;resizable=0;points=[];autosize=1;strokeColor=none;fillColor=none;" vertex="1" parent="1">
          <mxGeometry x="170" y="235" width="20" height="50" as="geometry" />
        </mxCell>
        <mxCell id="57EzMfTIHRk-Z8D5jB0g-68" value="&lt;h4&gt;N&lt;/h4&gt;" style="text;html=1;align=center;verticalAlign=middle;resizable=0;points=[];autosize=1;strokeColor=none;fillColor=none;" vertex="1" parent="1">
          <mxGeometry x="170" y="615" width="20" height="50" as="geometry" />
        </mxCell>
        <mxCell id="57EzMfTIHRk-Z8D5jB0g-69" value="&lt;u&gt;id&lt;/u&gt;" style="ellipse;whiteSpace=wrap;html=1;align=center;" vertex="1" parent="1">
          <mxGeometry x="10" y="590" width="60" height="30" as="geometry" />
        </mxCell>
        <mxCell id="57EzMfTIHRk-Z8D5jB0g-70" value="name" style="ellipse;whiteSpace=wrap;html=1;align=center;" vertex="1" parent="1">
          <mxGeometry x="-60" y="665" width="70" height="40" as="geometry" />
        </mxCell>
        <mxCell id="57EzMfTIHRk-Z8D5jB0g-71" value="dep" style="ellipse;whiteSpace=wrap;html=1;align=center;" vertex="1" parent="1">
          <mxGeometry x="140" y="800" width="120" height="40" as="geometry" />
        </mxCell>
        <mxCell id="57EzMfTIHRk-Z8D5jB0g-72" value="roll" style="ellipse;whiteSpace=wrap;html=1;align=center;" vertex="1" parent="1">
          <mxGeometry x="10" y="760" width="80" height="50" as="geometry" />
        </mxCell>
        <mxCell id="57EzMfTIHRk-Z8D5jB0g-73" value="date" style="ellipse;whiteSpace=wrap;html=1;align=center;" vertex="1" parent="1">
          <mxGeometry x="320" y="800" width="80" height="40" as="geometry" />
        </mxCell>
        <mxCell id="57EzMfTIHRk-Z8D5jB0g-74" value="time" style="ellipse;whiteSpace=wrap;html=1;align=center;" vertex="1" parent="1">
          <mxGeometry x="390" y="660" width="90" height="50" as="geometry" />
        </mxCell>
        <mxCell id="57EzMfTIHRk-Z8D5jB0g-75" value="status" style="ellipse;whiteSpace=wrap;html=1;align=center;" vertex="1" parent="1">
          <mxGeometry x="340" y="560" width="90" height="40" as="geometry" />
        </mxCell>
        <mxCell id="57EzMfTIHRk-Z8D5jB0g-76" value="" style="endArrow=none;html=1;strokeColor=default;exitX=0.893;exitY=-0.02;exitDx=0;exitDy=0;entryX=0;entryY=1;entryDx=0;entryDy=0;exitPerimeter=0;" edge="1" parent="1" source="57EzMfTIHRk-Z8D5jB0g-65" target="57EzMfTIHRk-Z8D5jB0g-75">
          <mxGeometry width="50" height="50" relative="1" as="geometry">
            <mxPoint x="330" y="680" as="sourcePoint" />
            <mxPoint x="380" y="630" as="targetPoint" />
          </mxGeometry>
        </mxCell>
        <mxCell id="57EzMfTIHRk-Z8D5jB0g-77" value="" style="endArrow=none;html=1;strokeColor=default;exitX=1;exitY=0.5;exitDx=0;exitDy=0;entryX=0;entryY=0.5;entryDx=0;entryDy=0;" edge="1" parent="1" source="57EzMfTIHRk-Z8D5jB0g-65" target="57EzMfTIHRk-Z8D5jB0g-74">
          <mxGeometry width="50" height="50" relative="1" as="geometry">
            <mxPoint x="300" y="682.5" as="sourcePoint" />
            <mxPoint x="410.25126265847075" y="644.1421356237311" as="targetPoint" />
          </mxGeometry>
        </mxCell>
        <mxCell id="57EzMfTIHRk-Z8D5jB0g-78" value="" style="endArrow=none;html=1;strokeColor=default;exitX=0.898;exitY=1.068;exitDx=0;exitDy=0;entryX=0;entryY=0;entryDx=0;entryDy=0;exitPerimeter=0;" edge="1" parent="1" source="57EzMfTIHRk-Z8D5jB0g-65" target="57EzMfTIHRk-Z8D5jB0g-73">
          <mxGeometry width="50" height="50" relative="1" as="geometry">
            <mxPoint x="300" y="695" as="sourcePoint" />
            <mxPoint x="430" y="695" as="targetPoint" />
          </mxGeometry>
        </mxCell>
        <mxCell id="57EzMfTIHRk-Z8D5jB0g-79" value="" style="endArrow=none;html=1;strokeColor=default;exitX=0.5;exitY=1;exitDx=0;exitDy=0;entryX=0.5;entryY=0;entryDx=0;entryDy=0;" edge="1" parent="1" source="57EzMfTIHRk-Z8D5jB0g-65" target="57EzMfTIHRk-Z8D5jB0g-71">
          <mxGeometry width="50" height="50" relative="1" as="geometry">
            <mxPoint x="170" y="745.82" as="sourcePoint" />
            <mxPoint x="253.78679656440363" y="834.1778643762694" as="targetPoint" />
          </mxGeometry>
        </mxCell>
        <mxCell id="57EzMfTIHRk-Z8D5jB0g-83" value="" style="endArrow=none;html=1;strokeColor=default;exitX=0.156;exitY=1.084;exitDx=0;exitDy=0;entryX=1;entryY=0;entryDx=0;entryDy=0;exitPerimeter=0;" edge="1" parent="1" source="57EzMfTIHRk-Z8D5jB0g-65" target="57EzMfTIHRk-Z8D5jB0g-72">
          <mxGeometry width="50" height="50" relative="1" as="geometry">
            <mxPoint x="210" y="720" as="sourcePoint" />
            <mxPoint x="210" y="820" as="targetPoint" />
          </mxGeometry>
        </mxCell>
        <mxCell id="57EzMfTIHRk-Z8D5jB0g-84" value="" style="endArrow=none;html=1;strokeColor=default;" edge="1" parent="1">
          <mxGeometry width="50" height="50" relative="1" as="geometry">
            <mxPoint x="10" y="685" as="sourcePoint" />
            <mxPoint x="110" y="685" as="targetPoint" />
          </mxGeometry>
        </mxCell>
        <mxCell id="57EzMfTIHRk-Z8D5jB0g-85" value="" style="endArrow=none;html=1;strokeColor=default;exitX=0.191;exitY=-0.036;exitDx=0;exitDy=0;entryX=0.68;entryY=1.007;entryDx=0;entryDy=0;exitPerimeter=0;entryPerimeter=0;" edge="1" parent="1" source="57EzMfTIHRk-Z8D5jB0g-65" target="57EzMfTIHRk-Z8D5jB0g-69">
          <mxGeometry width="50" height="50" relative="1" as="geometry">
            <mxPoint x="148.07999999999993" y="724.1999999999998" as="sourcePoint" />
            <mxPoint x="88.2842712474619" y="777.322330470336" as="targetPoint" />
          </mxGeometry>
        </mxCell>
      </root>
    </mxGraphModel>
  </diagram>
</mxfile>
